# xmcd CD database file
#
# Track frame offsets:
#	150
#	10400
#	19097
#	30728
#	40721
#	49097
#	58983
#	68070
#	76133
#	87323
#	99112
#	110224
#
# Disc length: 1621 seconds
#
# Revision: 0
# Processed by: cddbd v1.5.2PL0 Copyright (c) Steve Scherf et al.
# Submitted via: CDex 1.51
#
DISCID=9306530c
DTITLE=Johnny Cash - he Best Of Johnny Cash  -  CD 2
DYEAR=2008
DGENRE=Country
TTITLE0=There You Go
TTITLE1=Two Timin' Woman
TTITLE2=So Doggone Lonesome
TTITLE3=Get Rhythm
TTITLE4=Country Boy
TTITLE5=Hey Porter
TTITLE6=Blue Train
TTITLE7=The Wreck Of The Old '97
TTITLE8=Oh! Lonesome Me
TTITLE9=Doin' My Time
TTITLE10=Don't Make Me Go
TTITLE11=Big River
EXTD=YEAR: 2008
EXTT0=
EXTT1=
EXTT2=
EXTT3=
EXTT4=
EXTT5=
EXTT6=
EXTT7=
EXTT8=
EXTT9=
EXTT10=
EXTT11=
PLAYORDER=
